<svg xmlns="http://www.w3.org/2000/svg" width="33" height="33" fill="none" viewBox="0 0 33 33">
    <path fill="#1C6423" d="M1 16.254C1.089 7.908 7.804 1.149 16.149 1.006L16.5 1c8.262.148 15.006 6.652 15.454 14.903l.046.843c0 8.348-6.903 15.042-15.247 14.785L16 31.508l-.324-.016C7.523 31.096 1.089 24.416 1 16.254Z"/>
    <path stroke="#fff" stroke-linecap="round" stroke-linejoin="round" stroke-width=".5" d="M12.167 26.167c1.196 0 2.166-.933 2.166-2.084 0-1.15-.97-2.083-2.166-2.083C10.97 22 10 22.933 10 24.083c0 1.15.97 2.084 2.167 2.084Zm9 0c1.196 0 2.166-.933 2.166-2.084 0-1.15-.97-2.083-2.166-2.083C19.97 22 19 22.933 19 24.083c0 1.15.97 2.084 2.167 2.084Z"/>
    <path fill="#fff" d="M24.333 12.167a1.827 1.827 0 0 0-.69-.618 2.105 2.105 0 0 0-.943-.236H10.4l-.557-1.93C9.787 9.196 9.174 9.115 9 9c.117.25.013.082 0 0H7c-.255 0-.538.223-.719.383-.18.16-.281-.005-.281.222a.81.81 0 0 0 .281.604c.18.16.425.25.68.25L9 10.25l2.765 8.5c.056.186-.356.635-.182.75.175.115.283.007.5 0h8s.766.083.917 0c.15-.083.004-.017.084-.158L24 13.5c.333-.61.333-.621.5-1-.264-.467 0 0-.167-.333Zm-3.25 5.98h-8.587l-1.929-5.98h13.076l-2.56 5.98Z"/>
    <rect width="32" height="32" x=".5" y=".5" stroke="#FFFEFE" rx="16" style="mix-blend-mode:luminosity"/>
</svg>

